<svg width="332" height="56" viewBox="0 0 332 56" fill="none" xmlns="http://www.w3.org/2000/svg">
                                <rect width="332" height="56" rx="28" fill="#2F2F2F"/>
                                <path d="M52.4075 32.02C52.3275 32.0333 52.2075 32.04 52.0475 32.04C51.3808 32.04 50.7408 31.8067 50.1275 31.34C49.5142 30.86 49.0942 30.2867 48.8675 29.62C48.7475 29.26 48.6875 28.8933 48.6875 28.52C48.6875 27.7733 48.9008 27.0867 49.3275 26.46C49.7675 25.82 50.3408 25.3867 51.0475 25.16L53.8675 24.22V23.38H55.7275V29.32C55.7275 29.9067 55.9408 30.4067 56.3675 30.82C56.7942 31.22 57.3142 31.42 57.9275 31.42H58.3075L58.4275 32.46L58.3075 33.5H57.9275C57.2342 33.5 56.5875 33.34 55.9875 33.02C55.4008 32.6867 54.9275 32.24 54.5675 31.68C53.5675 31.8533 52.8475 31.9667 52.4075 32.02ZM50.6075 28.88C50.6875 29.1733 50.8608 29.4333 51.1275 29.66C51.4075 29.8733 51.7075 29.98 52.0275 29.98C52.1342 29.98 52.2142 29.9733 52.2675 29.96L53.8875 29.7C53.8742 29.62 53.8675 29.4933 53.8675 29.32V26.26L51.6275 27.04C51.2808 27.1467 51.0142 27.3333 50.8275 27.6C50.6408 27.8533 50.5475 28.14 50.5475 28.46C50.5475 28.5933 50.5675 28.7333 50.6075 28.88ZM58.1148 31.42H62.1148C62.8882 31.42 63.4615 31.3933 63.8348 31.34C64.2215 31.2867 64.4882 31.1867 64.6348 31.04C64.7815 30.88 64.8548 30.6467 64.8548 30.34C64.8548 30.18 64.8482 30.0533 64.8348 29.96C64.0215 30.0533 63.2348 30.1 62.4748 30.1C61.4615 30.1 60.6548 29.8 60.0548 29.2C59.4548 28.6 59.1548 27.7867 59.1548 26.76C59.1548 26.0267 59.2882 25.3533 59.5548 24.74C59.8215 24.1133 60.2215 23.6133 60.7548 23.24C61.2882 22.8667 61.9282 22.68 62.6748 22.68C63.6882 22.68 64.5282 23.0533 65.1948 23.8C65.8748 24.5467 66.2682 25.5333 66.3748 26.76L66.5948 29.74C66.6215 30.0867 66.6348 30.3267 66.6348 30.46C66.6348 31.1933 66.4948 31.78 66.2148 32.22C65.9482 32.6467 65.4815 32.9667 64.8148 33.18C64.1615 33.3933 63.2482 33.5 62.0748 33.5H58.1148V31.42ZM59.7348 19.08H61.6948V21.06H59.7348V19.08ZM60.8348 26.58C60.8348 27.0733 60.9748 27.4667 61.2548 27.76C61.5482 28.04 61.9548 28.18 62.4748 28.18C63.3282 28.18 64.0615 28.1267 64.6748 28.02L64.5748 26.92C64.4815 26.1733 64.2615 25.5933 63.9148 25.18C63.5682 24.7533 63.1282 24.54 62.5948 24.54C62.0482 24.54 61.6148 24.74 61.2948 25.14C60.9882 25.54 60.8348 26.02 60.8348 26.58ZM63.4548 19.08H65.4148V21.06H63.4548V19.08ZM79.5684 33.5C78.4351 33.5 77.6084 33.16 77.0884 32.48C76.4484 33.16 75.5751 33.5 74.4684 33.5H69.5884V31.42H74.4684C75.1218 31.42 75.5618 31.2867 75.7884 31.02C76.0151 30.74 76.1151 30.4067 76.0884 30.02L75.7084 20.14L77.5684 20.04L77.9284 29.5L77.9484 29.66C77.9884 30.3667 78.1484 30.84 78.4284 31.08C78.7084 31.3067 79.0884 31.42 79.5684 31.42H79.9684L80.0884 32.46L79.9684 33.5H79.5684ZM70.4684 20.8L72.0684 30L70.2484 30.38L68.6484 21.18L70.4684 20.8ZM85.855 33.28C84.9617 33.4 83.015 33.4733 80.015 33.5H79.775V31.42H79.975L82.155 31.38C81.955 31.02 81.815 30.6133 81.735 30.16C81.6817 29.8133 81.655 29.56 81.655 29.4C81.655 28.48 81.9417 27.6667 82.515 26.96C83.1017 26.24 83.8483 25.8 84.755 25.64C84.9683 25.6133 85.1417 25.6 85.275 25.6C86.0217 25.6 86.9683 25.7533 88.115 26.06L87.635 28.06C86.4617 27.7533 85.6417 27.62 85.175 27.66C84.6817 27.7133 84.2817 27.9067 83.975 28.24C83.6683 28.5733 83.515 28.9667 83.515 29.42C83.515 29.9267 83.6883 30.3533 84.035 30.7C84.395 31.0467 84.8217 31.2267 85.315 31.24L85.755 31.22L89.155 30.58L89.515 32.6L86.075 33.24L85.855 33.28ZM95.2395 33.5C94.2262 33.5 93.4129 33.28 92.7995 32.84C92.1995 32.4 91.8729 31.8333 91.8195 31.14C91.7662 30.8867 91.7395 30.4533 91.7395 29.84H93.4595C93.4595 30.2267 93.4795 30.54 93.5195 30.78C93.5729 31.02 93.7062 31.1867 93.9195 31.28C94.1329 31.3733 94.4662 31.42 94.9195 31.42H96.5795C97.7662 31.42 98.3595 31.06 98.3595 30.34C98.3595 30.26 98.3329 30.1 98.2795 29.86C98.0529 29.18 97.6462 28.34 97.0595 27.34C96.4862 26.34 95.8529 25.3467 95.1595 24.36L96.6595 23.14C97.4462 24.2333 98.1595 25.3467 98.7995 26.48C99.4529 27.6133 99.8795 28.5867 100.08 29.4C100.16 29.7333 100.2 30.0667 100.2 30.4C100.2 31.32 99.8729 32.0667 99.2195 32.64C98.5662 33.2133 97.6062 33.5 96.3395 33.5H95.2395ZM99.6992 36.62L100.679 36.36C101.413 36.16 101.979 35.9733 102.379 35.8C102.793 35.6267 103.119 35.3867 103.359 35.08C103.613 34.7867 103.739 34.3933 103.739 33.9C103.739 33.8067 103.726 33.64 103.699 33.4L102.899 27.64L104.739 27.36L105.319 31.6L105.379 32.02L105.519 33.16C105.559 33.48 105.579 33.7733 105.579 34.04C105.579 35.24 105.206 36.16 104.459 36.8C103.726 37.44 102.626 37.96 101.159 38.36L100.179 38.62L99.6992 36.62ZM108.554 36.62C110.261 36.26 111.441 35.9733 112.094 35.76C112.761 35.56 113.221 35.2933 113.474 34.96C113.741 34.64 113.848 34.1533 113.794 33.5H111.334C110.254 33.5 109.394 33.1667 108.754 32.5C108.114 31.82 107.794 30.9133 107.794 29.78C107.794 29.0733 107.948 28.4067 108.254 27.78C108.561 27.14 108.994 26.6333 109.554 26.26C110.114 25.8733 110.748 25.68 111.454 25.68C112.481 25.68 113.341 26.08 114.034 26.88C114.728 27.6667 115.148 28.6933 115.294 29.96L115.454 31.42H116.654L116.774 32.46L116.654 33.5H116.594H115.674L115.694 33.94C115.694 34.9133 115.461 35.68 114.994 36.24C114.541 36.8 113.854 37.2467 112.934 37.58C112.014 37.9267 110.681 38.28 108.934 38.64L108.554 36.62ZM109.654 29.78C109.654 30.3267 109.788 30.74 110.054 31.02C110.321 31.2867 110.748 31.42 111.334 31.42H113.574L113.434 30.2C113.354 29.4133 113.141 28.8133 112.794 28.4C112.448 27.9733 112.001 27.76 111.454 27.76C110.894 27.76 110.454 27.96 110.134 28.36C109.814 28.76 109.654 29.2333 109.654 29.78ZM116.455 31.42H116.675C117.075 31.42 117.435 31.3333 117.755 31.16C118.075 30.9733 118.315 30.72 118.475 30.4L119.995 27.5C120.261 26.98 120.641 26.58 121.135 26.3C121.628 26.0067 122.155 25.86 122.715 25.86C123.235 25.86 123.721 25.98 124.175 26.22C124.761 26.5267 125.195 26.94 125.475 27.46C125.768 27.98 125.915 28.58 125.915 29.26C125.915 30.18 125.675 31.1533 125.195 32.18C124.995 32.62 124.701 32.9667 124.315 33.22C123.941 33.4733 123.528 33.6 123.075 33.6C122.701 33.6 122.348 33.5133 122.015 33.34L119.575 32.08C118.815 33.0267 117.848 33.5 116.675 33.5H116.455V31.42ZM123.115 31.58C123.208 31.6333 123.301 31.66 123.395 31.66C123.581 31.66 123.708 31.5667 123.775 31.38L123.975 30.94C124.188 30.4333 124.295 29.9733 124.295 29.56C124.295 29.2 124.221 28.88 124.075 28.6C123.928 28.3067 123.715 28.0933 123.435 27.96C123.235 27.8533 123.008 27.8 122.755 27.8C122.475 27.8 122.208 27.88 121.955 28.04C121.715 28.1867 121.521 28.4067 121.375 28.7L120.575 30.3L123.115 31.58ZM140.97 33.5C139.464 33.5 138.324 33.4867 137.55 33.46C136.79 33.42 136.21 33.3667 135.81 33.3C135.424 33.22 135.05 33.1067 134.69 32.96C134.064 32.68 133.584 32.2733 133.25 31.74C132.917 31.2067 132.75 30.5867 132.75 29.88C132.75 29.4533 132.81 29 132.93 28.52L133.67 25.66L135.45 26.18L134.69 29.12C134.624 29.3467 134.59 29.5933 134.59 29.86C134.59 30.1533 134.657 30.3933 134.79 30.58C134.924 30.7667 135.137 30.9267 135.43 31.06C135.75 31.1933 136.244 31.2867 136.91 31.34C137.59 31.3933 138.984 31.42 141.09 31.42H145.79C146.404 31.42 146.837 31.32 147.09 31.12C147.344 30.9067 147.457 30.58 147.43 30.14V30.1L147.21 27.64L149.07 27.46L149.29 29.92V29.98C149.344 30.5267 149.484 30.9067 149.71 31.12C149.95 31.32 150.35 31.42 150.91 31.42H151.13L151.25 32.46L151.13 33.5H150.91C149.804 33.5 148.964 33.1933 148.39 32.58C148.084 32.8733 147.71 33.1 147.27 33.26C146.83 33.42 146.337 33.5 145.79 33.5H141.09H140.97ZM138.31 24.46H140.27V26.44H138.31V24.46ZM142.03 24.46H143.99V26.44H142.03V24.46ZM161.368 33.5C160.354 33.5 159.534 33.1133 158.908 32.34C158.294 33.1133 157.434 33.5 156.328 33.5C155.328 33.5 154.534 33.1133 153.948 32.34C153.308 33.1133 152.461 33.5 151.408 33.5H150.908V31.42H151.408C152.048 31.42 152.481 31.2867 152.708 31.02C152.934 30.7533 153.048 30.4133 153.048 30V27.54H154.788V30C154.788 30.2933 154.888 30.6067 155.088 30.94C155.288 31.26 155.701 31.42 156.328 31.42C156.968 31.42 157.394 31.2933 157.608 31.04C157.834 30.7733 157.948 30.4267 157.948 30V27.54H159.688V30.02C159.688 30.2867 159.788 30.5867 159.988 30.92C160.201 31.24 160.621 31.4 161.248 31.4C161.834 31.4 162.261 31.3 162.528 31.1C162.808 30.9 162.948 30.64 162.948 30.32C162.948 30.2 162.928 30.08 162.888 29.96L162.228 27.5L163.908 27L164.568 29.46L164.608 29.6C164.754 30.1467 165.041 30.5867 165.468 30.92C165.894 31.2533 166.388 31.42 166.948 31.42L167.068 32.46L166.948 33.5C166.374 33.5 165.848 33.3933 165.368 33.18C164.888 32.9533 164.468 32.64 164.108 32.24C163.814 32.6267 163.434 32.9333 162.968 33.16C162.501 33.3867 161.968 33.5 161.368 33.5ZM166.748 31.42H169.968C170.581 31.42 171.014 31.3133 171.268 31.1C171.521 30.8867 171.628 30.5533 171.588 30.1L171.368 27.64L173.228 27.46L173.448 29.92V29.94C173.501 30.5 173.641 30.8867 173.868 31.1C174.108 31.3133 174.514 31.42 175.088 31.42L175.188 32.46L175.088 33.5C173.981 33.5 173.141 33.1933 172.568 32.58C171.914 33.1933 171.048 33.5 169.968 33.5H166.748V31.42ZM165.768 35.44H167.728V37.42H165.768V35.44ZM169.508 35.44H171.468V37.42H169.508V35.44ZM174.892 31.42H175.352C176.472 31.42 177.019 30.9533 176.992 30.02L176.612 20.14L178.452 20.04L178.832 29.94C178.859 30.5533 178.746 31.1333 178.492 31.68C178.252 32.2267 177.866 32.6667 177.332 33C176.799 33.3333 176.139 33.5 175.352 33.5H174.892V31.42ZM189.458 32.02C189.378 32.0333 189.258 32.04 189.098 32.04C188.432 32.04 187.792 31.8067 187.178 31.34C186.565 30.86 186.145 30.2867 185.918 29.62C185.798 29.26 185.738 28.8933 185.738 28.52C185.738 27.7733 185.952 27.0867 186.378 26.46C186.818 25.82 187.392 25.3867 188.098 25.16L190.918 24.22V23.38H192.778V29.32C192.778 29.9067 192.992 30.4067 193.418 30.82C193.845 31.22 194.365 31.42 194.978 31.42H195.358L195.478 32.46L195.358 33.5H194.978C194.285 33.5 193.638 33.34 193.038 33.02C192.452 32.6867 191.978 32.24 191.618 31.68C190.618 31.8533 189.898 31.9667 189.458 32.02ZM187.658 28.88C187.738 29.1733 187.912 29.4333 188.178 29.66C188.458 29.8733 188.758 29.98 189.078 29.98C189.185 29.98 189.265 29.9733 189.318 29.96L190.938 29.7C190.925 29.62 190.918 29.4933 190.918 29.32V26.26L188.678 27.04C188.332 27.1467 188.065 27.3333 187.878 27.6C187.692 27.8533 187.598 28.14 187.598 28.46C187.598 28.5933 187.618 28.7333 187.658 28.88ZM195.166 31.42H196.746C197.386 31.42 197.879 31.3133 198.226 31.1C198.586 30.8867 198.766 30.52 198.766 30C198.766 29.7333 198.719 29.44 198.626 29.12L197.826 26.14L199.626 25.62L200.426 28.6C200.559 29.08 200.626 29.5467 200.626 30C200.626 31.0933 200.259 31.9533 199.526 32.58C198.792 33.1933 197.866 33.5 196.746 33.5H195.166V31.42ZM195.546 35.26H197.746V37.48H195.546V35.26ZM211.255 32.02C211.175 32.0333 211.055 32.04 210.895 32.04C210.228 32.04 209.588 31.8067 208.975 31.34C208.362 30.86 207.942 30.2867 207.715 29.62C207.595 29.26 207.535 28.8933 207.535 28.52C207.535 27.7733 207.748 27.0867 208.175 26.46C208.615 25.82 209.188 25.3867 209.895 25.16L212.715 24.22V23.38H214.575V29.32C214.575 29.9067 214.788 30.4067 215.215 30.82C215.642 31.22 216.162 31.42 216.775 31.42H217.155L217.275 32.46L217.155 33.5H216.775C216.082 33.5 215.435 33.34 214.835 33.02C214.248 32.6867 213.775 32.24 213.415 31.68C212.415 31.8533 211.695 31.9667 211.255 32.02ZM209.455 28.88C209.535 29.1733 209.708 29.4333 209.975 29.66C210.255 29.8733 210.555 29.98 210.875 29.98C210.982 29.98 211.062 29.9733 211.115 29.96L212.735 29.7C212.722 29.62 212.715 29.4933 212.715 29.32V26.26L210.475 27.04C210.128 27.1467 209.862 27.3333 209.675 27.6C209.488 27.8533 209.395 28.14 209.395 28.46C209.395 28.5933 209.415 28.7333 209.455 28.88ZM216.962 31.42H220.963C221.736 31.42 222.309 31.3933 222.683 31.34C223.069 31.2867 223.336 31.1867 223.483 31.04C223.629 30.88 223.703 30.6467 223.703 30.34C223.703 30.18 223.696 30.0533 223.683 29.96C222.869 30.0533 222.083 30.1 221.323 30.1C220.309 30.1 219.503 29.8 218.903 29.2C218.303 28.6 218.003 27.7867 218.003 26.76C218.003 26.0267 218.136 25.3533 218.403 24.74C218.669 24.1133 219.069 23.6133 219.603 23.24C220.136 22.8667 220.776 22.68 221.523 22.68C222.536 22.68 223.376 23.0533 224.043 23.8C224.723 24.5467 225.116 25.5333 225.223 26.76L225.443 29.74C225.469 30.0867 225.483 30.3267 225.483 30.46C225.483 31.1933 225.343 31.78 225.063 32.22C224.796 32.6467 224.329 32.9667 223.663 33.18C223.009 33.3933 222.096 33.5 220.923 33.5H216.962V31.42ZM219.683 26.58C219.683 27.0733 219.823 27.4667 220.103 27.76C220.396 28.04 220.803 28.18 221.323 28.18C222.176 28.18 222.909 28.1267 223.523 28.02L223.423 26.92C223.329 26.1733 223.109 25.5933 222.763 25.18C222.416 24.7533 221.976 24.54 221.443 24.54C220.896 24.54 220.463 24.74 220.143 25.14C219.836 25.54 219.683 26.02 219.683 26.58ZM220.363 18.52H222.583V20.72H220.363V18.52ZM231.896 33.5C231.003 33.5 230.296 33.3667 229.776 33.1C229.256 32.8333 228.876 32.4067 228.636 31.82C228.396 31.22 228.256 30.3933 228.216 29.34L227.856 20.14L229.716 20.06L230.076 29.34C230.103 29.98 230.156 30.44 230.236 30.72C230.329 30.9867 230.489 31.1733 230.716 31.28C230.956 31.3733 231.349 31.42 231.896 31.42H232.096L232.216 32.46L232.096 33.5H231.896ZM236.644 33.5C235.817 33.4867 235.157 33.18 234.664 32.58C233.984 33.1667 233.097 33.4733 232.004 33.5H231.904V31.42H232.004C232.591 31.42 233.044 31.3067 233.364 31.08C233.697 30.84 233.891 30.4533 233.944 29.92L234.164 27.46L236.004 27.64L235.784 30.08V30.1C235.744 30.54 235.804 30.8733 235.964 31.1C236.124 31.3133 236.371 31.42 236.704 31.42L238.084 29.54C238.764 28.58 239.324 27.8467 239.764 27.34C240.204 26.82 240.677 26.4133 241.184 26.12C241.691 25.8267 242.257 25.68 242.884 25.68C243.591 25.68 244.231 25.86 244.804 26.22C245.391 26.58 245.844 27.0733 246.164 27.7C246.497 28.3133 246.664 28.9933 246.664 29.74C246.664 30.4067 246.491 31.0267 246.144 31.6C245.797 32.1733 245.331 32.6333 244.744 32.98C244.171 33.3267 243.551 33.5 242.884 33.5H236.644ZM242.884 31.42C243.417 31.42 243.871 31.2467 244.244 30.9C244.617 30.5533 244.804 30.14 244.804 29.66C244.804 29.1267 244.624 28.68 244.264 28.32C243.917 27.9467 243.471 27.76 242.924 27.76C242.551 27.76 242.204 27.86 241.884 28.06C241.564 28.26 241.237 28.56 240.904 28.96C240.571 29.3467 240.137 29.9267 239.604 30.7L239.084 31.42H242.884ZM241.464 21.86H243.684V24.08H241.464V21.86ZM249.248 20.14L251.108 20.04L251.608 33.48L249.768 33.56L249.248 20.14Z" fill="#FCFCFC"/>
                                <path d="M268 37H278C280.357 37 281.535 37 282.268 36.2678C283 35.5355 283 34.357 283 32C283 29.643 283 28.4645 282.268 27.7322C281.535 27 280.357 27 278 27H268C265.643 27 264.465 27 263.732 27.7322C263 28.4644 263 29.6429 263 31.9999C263 34.357 263 35.5355 263.732 36.2677C264.464 37 265.643 37 268 37Z" stroke="#FCFCFC" stroke-width="1.5" stroke-linecap="round" stroke-linejoin="round"/>
                                <path d="M265 27C265 25.5998 265 24.8997 265.273 24.3649C265.512 23.8946 265.895 23.5122 266.365 23.2725C266.9 23 267.6 23 269 23H277C278.4 23 279.1 23 279.635 23.2725C280.105 23.5122 280.488 23.8946 280.728 24.365C281 24.8998 281 25.5999 281 27" stroke="#FCFCFC" stroke-width="1.5" stroke-linecap="round" stroke-linejoin="round"/>
                                <path d="M267 23C267 21.5998 267 20.8997 267.273 20.3649C267.512 19.8946 267.895 19.5122 268.365 19.2725C268.9 19 269.6 19 271 19H275C276.4 19 277.1 19 277.635 19.2725C278.105 19.5122 278.488 19.8946 278.728 20.365C279 20.8998 279 21.5999 279 23" stroke="#FCFCFC" stroke-width="1.5" stroke-linecap="round" stroke-linejoin="round"/>
                                <path d="M277 31L276.7 31.4C276.111 32.1851 275.817 32.5777 275.394 32.7889C274.972 33 274.481 33 273.5 33H272.5C271.519 33 271.028 33 270.606 32.7889C270.183 32.5777 269.889 32.1851 269.3 31.4L269 31" stroke="#FCFCFC" stroke-width="1.5" stroke-linecap="round" stroke-linejoin="round"/>
                                </svg>