<svg width="56" height="56" viewBox="0 0 56 56" fill="none" xmlns="http://www.w3.org/2000/svg">
<circle cx="28" cy="28" r="27.5" fill="#FCFCFC" stroke="#DCDCDC"/>
<path d="M18 27.5C18 28.6046 18.8954 29.5 20 29.5C21.6568 29.5 23 28.1569 23 26.5V22.5C23 20.8432 21.6568 19.5 20 19.5C18.8954 19.5 18 20.3954 18 21.5V27.5Z" stroke="#2F2F2F" stroke-width="1.5" stroke-linecap="round" stroke-linejoin="round"/>
<path d="M31.4787 32.1937L31.2124 31.3337C30.9942 30.6289 30.8851 30.2765 30.969 29.9982C31.0369 29.7731 31.1859 29.579 31.389 29.4513C31.64 29.2935 32.0197 29.2935 32.7791 29.2935H33.1831C35.7532 29.2935 37.0382 29.2935 37.6452 28.5327C37.7145 28.4458 37.7762 28.3533 37.8296 28.2563C38.2965 27.4079 37.7657 26.2649 36.704 23.9789C35.7297 21.8811 35.2425 20.8322 34.338 20.2148C34.2505 20.1551 34.1605 20.0987 34.0683 20.0459C33.116 19.5 31.9362 19.5 29.5764 19.5H29.0646C26.2057 19.5 24.7763 19.5 23.8881 20.3605C23 21.2211 23 22.6061 23 25.3761V26.3497C23 27.8054 23 28.5332 23.2583 29.1994C23.5167 29.8656 24.0114 30.4134 25.0007 31.5089L29.0921 36.0394C29.1947 36.1531 29.246 36.2099 29.2913 36.2493C29.7135 36.6167 30.3652 36.5754 30.7344 36.1577C30.774 36.1129 30.8172 36.0501 30.9036 35.9245C31.0388 35.728 31.1064 35.6297 31.1654 35.5323C31.6928 34.6609 31.8524 33.6256 31.6108 32.6429C31.5838 32.5331 31.5488 32.4199 31.4787 32.1937Z" stroke="#2F2F2F" stroke-width="1.5" stroke-linecap="round" stroke-linejoin="round"/>
</svg>
