<svg width="56" height="56" viewBox="0 0 56 56" fill="none" xmlns="http://www.w3.org/2000/svg">
<circle cx="28" cy="28" r="28" fill="#3772FF"/>
<path d="M18 28.5C18 27.3954 18.8954 26.5 20 26.5C21.6568 26.5 23 27.8431 23 29.5V33.5C23 35.1569 21.6568 36.5 20 36.5C18.8954 36.5 18 35.6046 18 34.5V28.5Z" stroke="#FCFCFC" stroke-width="1.5" stroke-linecap="round" stroke-linejoin="round"/>
<path d="M31.4787 23.8063L31.2124 24.6663C30.9942 25.3711 30.8851 25.7235 30.969 26.0018C31.0369 26.2269 31.1859 26.421 31.389 26.5487C31.64 26.7065 32.0197 26.7065 32.7791 26.7065H33.1831C35.7532 26.7065 37.0382 26.7065 37.6452 27.4673C37.7145 27.5542 37.7762 27.6467 37.8296 27.7437C38.2965 28.5921 37.7657 29.7351 36.704 32.0211C35.7297 34.1189 35.2425 35.1678 34.338 35.7852C34.2505 35.8449 34.1605 35.9013 34.0683 35.9541C33.116 36.5 31.9362 36.5 29.5764 36.5H29.0646C26.2057 36.5 24.7763 36.5 23.8881 35.6395C23 34.7789 23 33.3939 23 30.6239V29.6503C23 28.1946 23 27.4668 23.2583 26.8006C23.5167 26.1344 24.0114 25.5866 25.0007 24.4911L29.0921 19.9606C29.1947 19.8469 29.246 19.7901 29.2913 19.7508C29.7135 19.3833 30.3652 19.4246 30.7344 19.8424C30.774 19.8871 30.8172 19.9499 30.9036 20.0755C31.0388 20.2721 31.1064 20.3703 31.1654 20.4677C31.6928 21.3391 31.8524 22.3744 31.6108 23.3572C31.5838 23.4669 31.5488 23.5801 31.4787 23.8063Z" stroke="#FCFCFC" stroke-width="1.5" stroke-linecap="round" stroke-linejoin="round"/>
</svg>
