  <svg width="194" height="56" viewBox="0 0 194 56" fill="none" xmlns="http://www.w3.org/2000/svg">
    <rect width="194" height="56" rx="28" fill="#3772FF"/>
    <path d="M49.0142 33.54C48.2942 33.54 47.6342 33.36 47.0342 33C46.4342 32.6267 45.9542 32.1267 45.5942 31.5C45.2476 30.8733 45.0742 30.1933 45.0742 29.46C45.0742 28.8333 45.2209 28.2067 45.5142 27.58C45.8209 26.94 46.2342 26.36 46.7542 25.84L47.1142 25.48L46.5942 24.98L48.3342 22.94L50.9542 25.38C51.6476 26.02 52.1476 26.66 52.4542 27.3C52.7742 27.94 52.9342 28.66 52.9342 29.46C52.9342 30.1933 52.7609 30.8733 52.4142 31.5C52.0676 32.1267 51.5942 32.6267 50.9942 33C50.3942 33.36 49.7342 33.54 49.0142 33.54ZM47.5342 29.46C47.5342 29.8333 47.6742 30.1467 47.9542 30.4C48.2342 30.6533 48.5876 30.78 49.0142 30.78C49.4409 30.78 49.7876 30.6533 50.0542 30.4C50.3342 30.1467 50.4742 29.8333 50.4742 29.46C50.4742 29.1533 50.3942 28.8667 50.2342 28.6C50.0742 28.32 49.7476 27.9467 49.2542 27.48L48.9942 27.24L48.6542 27.58C48.2276 28.0067 47.9342 28.36 47.7742 28.64C47.6142 28.9067 47.5342 29.18 47.5342 29.46ZM52.1602 35.88L53.4002 35.52C54.3468 35.2667 55.0068 35.0067 55.3802 34.74C55.7668 34.4733 55.9602 34.0667 55.9602 33.52C55.9602 33.4267 55.9468 33.2733 55.9202 33.06L55.1202 27.32L57.6202 26.94L58.2002 31.12L58.4202 32.72C58.4735 33.2 58.5002 33.5333 58.5002 33.72C58.5002 34.9467 58.1335 35.9067 57.4002 36.6C56.6668 37.3067 55.5535 37.86 54.0602 38.26L52.8202 38.62L52.1602 35.88ZM61.6244 35.86C63.1977 35.54 64.3044 35.2867 64.9444 35.1C65.5844 34.9133 66.0244 34.6933 66.2644 34.44C66.5044 34.1867 66.6177 33.82 66.6044 33.34C65.991 33.4467 65.2777 33.5 64.4644 33.5C63.7177 33.5 63.051 33.3267 62.4644 32.98C61.8777 32.6333 61.4177 32.1467 61.0844 31.52C60.7644 30.8933 60.6044 30.1867 60.6044 29.4C60.6044 28.6133 60.771 27.88 61.1044 27.2C61.451 26.5067 61.9244 25.9533 62.5244 25.54C63.1377 25.1267 63.8177 24.92 64.5644 24.92C65.6977 24.92 66.6444 25.3467 67.4044 26.2C68.1644 27.04 68.6177 28.1467 68.7644 29.52L69.1044 32.76C69.131 32.9733 69.1444 33.2667 69.1444 33.64C69.1444 34.6533 68.911 35.46 68.4444 36.06C67.9777 36.6733 67.2577 37.16 66.2844 37.52C65.311 37.8933 63.9244 38.26 62.1244 38.62L61.6244 35.86ZM63.1444 29.42C63.1444 30.2467 63.5844 30.66 64.4644 30.66C65.1444 30.66 65.7644 30.6133 66.3244 30.52L66.2644 29.88C66.1977 29.2 66.0177 28.68 65.7244 28.32C65.431 27.9467 65.0577 27.76 64.6044 27.76C64.151 27.76 63.791 27.92 63.5244 28.24C63.271 28.56 63.1444 28.9533 63.1444 29.42ZM74.8684 33.5C74.1751 33.5 73.5618 33.38 73.0284 33.14C72.4951 32.8867 72.0751 32.5467 71.7684 32.12C71.4751 31.6933 71.3151 31.2267 71.2884 30.72C71.2751 30.52 71.2684 30.0867 71.2684 29.42H73.5884C73.5884 29.7933 73.6018 30.0667 73.6284 30.24C73.6418 30.4 73.7084 30.5133 73.8284 30.58C73.9618 30.6333 74.1618 30.66 74.4284 30.66H76.7084C77.4684 30.66 77.8484 30.4333 77.8484 29.98C77.8484 29.8867 77.8218 29.7467 77.7684 29.56C77.5284 28.8933 77.1218 28.08 76.5484 27.12C75.9751 26.1467 75.3551 25.18 74.6884 24.22L76.7484 22.54C77.5484 23.6333 78.2751 24.76 78.9284 25.92C79.5818 27.0667 80.0084 28.06 80.2084 28.9C80.3018 29.26 80.3484 29.64 80.3484 30.04C80.3484 31.0533 79.9951 31.8867 79.2884 32.54C78.5951 33.18 77.6218 33.5 76.3684 33.5H74.8684ZM87.9525 35.86C89.5258 35.54 90.6325 35.2867 91.2725 35.1C91.9125 34.9133 92.3525 34.6933 92.5925 34.44C92.8325 34.1867 92.9458 33.82 92.9325 33.34C92.3192 33.4467 91.6058 33.5 90.7925 33.5C90.0458 33.5 89.3792 33.3267 88.7925 32.98C88.2058 32.6333 87.7458 32.1467 87.4125 31.52C87.0925 30.8933 86.9325 30.1867 86.9325 29.4C86.9325 28.6133 87.0992 27.88 87.4325 27.2C87.7792 26.5067 88.2525 25.9533 88.8525 25.54C89.4658 25.1267 90.1458 24.92 90.8925 24.92C92.0258 24.92 92.9725 25.3467 93.7325 26.2C94.4925 27.04 94.9458 28.1467 95.0925 29.52L95.4325 32.76C95.4592 32.9733 95.4725 33.2667 95.4725 33.64C95.4725 34.6533 95.2392 35.46 94.7725 36.06C94.3058 36.6733 93.5858 37.16 92.6125 37.52C91.6392 37.8933 90.2525 38.26 88.4525 38.62L87.9525 35.86ZM89.4725 29.42C89.4725 30.2467 89.9125 30.66 90.7925 30.66C91.4725 30.66 92.0925 30.6133 92.6525 30.52L92.5925 29.88C92.5258 29.2 92.3458 28.68 92.0525 28.32C91.7592 27.9467 91.3858 27.76 90.9325 27.76C90.4792 27.76 90.1192 27.92 89.8525 28.24C89.5992 28.56 89.4725 28.9533 89.4725 29.42ZM96.0273 35.88L97.2673 35.52C98.214 35.2667 98.874 35.0067 99.2473 34.74C99.634 34.4733 99.8273 34.0667 99.8273 33.52C99.8273 33.4267 99.814 33.2733 99.7873 33.06L98.9873 27.32L101.487 26.94L102.067 31.12L102.287 32.72C102.341 33.2 102.367 33.5333 102.367 33.72C102.367 34.9467 102.001 35.9067 101.267 36.6C100.534 37.3067 99.4207 37.86 97.9273 38.26L96.6873 38.62L96.0273 35.88ZM103.352 35.88L104.592 35.52C105.538 35.2667 106.198 35.0067 106.572 34.74C106.958 34.4733 107.152 34.0667 107.152 33.52C107.152 33.4267 107.138 33.2733 107.112 33.06L106.312 27.32L108.812 26.94L109.392 31.12L109.612 32.72C109.665 33.2 109.692 33.5333 109.692 33.72C109.692 34.9467 109.325 35.9067 108.592 36.6C107.858 37.3067 106.745 37.86 105.252 38.26L104.012 38.62L103.352 35.88ZM106.072 22.26H108.692V24.9H106.072V22.26ZM110.676 35.88L111.916 35.52C112.862 35.2667 113.522 35.0067 113.896 34.74C114.282 34.4733 114.476 34.0667 114.476 33.52C114.476 33.4267 114.462 33.2733 114.436 33.06L113.636 27.32L116.136 26.94L116.716 31.12L116.936 32.72C116.989 33.2 117.016 33.5333 117.016 33.72C117.016 34.9467 116.649 35.9067 115.916 36.6C115.182 37.3067 114.069 37.86 112.576 38.26L111.336 38.62L110.676 35.88Z" fill="#FCFCFC"/>
    <path d="M146.5 32.9286V26C146.5 22.2288 146.5 20.3432 145.328 19.1716C144.157 18 142.271 18 138.5 18H137.5C133.729 18 131.843 18 130.672 19.1716C129.5 20.3432 129.5 22.2288 129.5 26V35.5" stroke="#FCFCFC" stroke-width="1.5" stroke-linecap="round"/>
    <path d="M146.5 33H132C130.619 33 129.5 34.1193 129.5 35.5C129.5 36.8807 130.619 38 132 38H146.5" stroke="#FCFCFC" stroke-width="1.5" stroke-linecap="round"/>
    <path d="M146.5 38C145.119 38 144 36.8807 144 35.5C144 34.1193 145.119 33 146.5 33" stroke="#FCFCFC" stroke-width="1.5" stroke-linecap="round"/>
    <path d="M141 23H135" stroke="#FCFCFC" stroke-width="1.5" stroke-linecap="round" stroke-linejoin="round"/>
    <path d="M138 27H135" stroke="#FCFCFC" stroke-width="1.5" stroke-linecap="round" stroke-linejoin="round"/>
                                </svg>